<?xml version="1.0" encoding="utf-8"?>
<!-- Generator: Adobe Illustrator 16.0.0, SVG Export Plug-In . SVG Version: 6.00 Build 0)  -->
<!DOCTYPE svg PUBLIC "-//W3C//DTD SVG 1.1//EN" "http://www.w3.org/Graphics/SVG/1.1/DTD/svg11.dtd">
<svg version="1.1" id="Layer_1" xmlns="http://www.w3.org/2000/svg" xmlns:xlink="http://www.w3.org/1999/xlink" x="0px" y="0px"
	 width="1008px" height="1008px" viewBox="0 0 1008 1008" enable-background="new 0 0 1008 1008" xml:space="preserve">
<path fill="#FFFFFF" stroke="#000000" stroke-width="5" stroke-miterlimit="10" d="M895,503.6c0,158.05-93.73,294.22-228.641,355.95
	c-40.949,18.74-85.689,30.62-132.77,34.171c0,0-0.01,0-0.02,0c-9.84,0.739-19.791,1.119-29.82,1.119c-16.28,0-32.32-0.99-48.08-2.93
	h-0.03c-50.52-6.189-98.06-22.02-140.73-45.58C194.23,779.7,112.5,651.189,112.5,503.6c0-216.08,175.17-391.25,391.25-391.25
	S895,287.52,895,503.6z"/>
<g>
	<g>
		<path d="M684.357,468.113c-2,6.67-11.33,7.67-15.33,13l-0.06-0.06l-0.61-0.6c-3,4,1.67,9.33,2.34,13.66c0.66,5.34-1,8.34-4,12.67
			c-3,4.33-6,4.33-11.67,5.67c-3.67,1-11.67,1.66-7,7.66l-0.33,0.67c10.33,11.67-7.34,20.33-8.67,31.67l0.48-1.42
			c-2.22,15.35-0.8,25.84-17.59,33.08c-14.27,5.979-27.23,15.6-41.83,20.609l0.27-0.27c-5.66,3.33-4.66,26-4.66,32
			c0,10.66-1,23,2.33,33l-0.67-1.881c-0.01-0.01-0.02-0.029-0.01-0.039l-0.99-2.75c3,14.67,9.67,29,16.34,42.33
			c7.33,15,16,31.34,26.33,44.34c10,13.33,18,28.33,25.33,43c3.34,6.66,5.67,14.33,8,21c1.811,5.74,5.82,12.84,7.301,18.84
			c-0.211-0.6-0.42-1.2-0.62-1.811l0.01,0.051l0.42,1.529l0.17,0.631l0.021,0.06l0.369,1.36c-0.049-0.34-0.119-0.681-0.189-1.031
			c2.77,7.65,6.359,14.971,10.1,22.24c0.01,0,0.01,0.01,0.01,0.01c-1.439,0.66-2.879,1.311-4.33,1.951
			c-13.959,6.18-28.34,11.569-43.09,16.109c-27.289,8.4-55.859,13.891-85.35,16.11c0,0-0.01,0-0.02,0
			c-9.84,0.739-19.791,1.12-29.82,1.12c-16.28,0-32.32-0.99-48.08-2.93h-0.03C411.908,883.893,366.54,870.641,326,849.5
			c-2.88-0.811-4.962-2.957-7.502-4.527l0.1-0.8l0.01-0.06c0.28-2.58,0.64-5.131,1.09-7.66c3.67-20.67,3.33-44.34,12-63.34
			c8.33-17.66,12.67-37.33,18-56c2.33-8,7-15.33,9-23.33c1.67-7,2-14.67,3.67-22l-1-0.34c0.33-3.33-2.34-6.66-2.67-10.66
			c-0.33-3.67,0.33-7.34,2-10.34c4-7.33,7.67-14,11.33-21.33c1.67-3.67,1-9,3.34-12c2.33-3.33,6.33-2.67,8.33-7.67
			c3-8.33,3.67-12.33,11-17.33c2.98-1.98,8.9-5.94,9.65-9.25c0.22,0.199,0.41,0.279,0.56,0.25c1.33,0.199,0.86-5.881,1.46-7.67
			c0.33-1.66,2-3,2.33-4.66c0.33-2-0.33-3.67,0.33-5.67c2-7,10.34-11.67,13-17.33c6-12.34-7-26-10.66-36.34
			c-0.09-0.24-0.18-0.531-0.27-0.861c-0.05-0.209-0.11-0.449-0.17-0.699s-0.12-0.51-0.19-0.78c-0.12-0.54-0.26-1.12-0.4-1.72
			c-0.08-0.301-0.15-0.6-0.23-0.9c-0.37-1.359-0.83-2.72-1.45-3.77c-0.28-0.47-0.59-0.88-0.94-1.2c-0.09-0.09-0.19-0.16-0.28-0.23
			c-0.19-0.14-0.38-0.25-0.58-0.34c-0.32-0.13-0.66-0.2-1.02-0.2h-0.06c-0.06,0-0.12,0.01-0.17,0.01c-0.08,0-0.16,0.01-0.24,0.02
			c-0.68-5-5-9.66-8-12.33c-2-2-2.67-1-4-4.33c-0.6-2.07,0.92-4.68-1.33-4.75c-0.18-0.02-0.38-0.01-0.62,0.02
			c-0.12,0.01-0.25,0.03-0.39,0.05c-1.34-1.99-3.66-2.99-4.66-5.65c3-2-3-5.34-4.67-6c-2.67-2.34-5.67-6.67-7.67-10.34
			c-2.33-4.33-1.66-8.66-2.66-13c-1-4.66-3.34-7-3.34-12.33c0-4.67,0.67-9,1-13.33l-0.66-0.67c-0.34-2.33-2.34-2.33-3-4
			c-1-2.33-0.67-2.33-1-4.66c-0.67-3-1.67-6.34-1.67-9.34c0.33-3.66,2.33-6.33,3.33-10c0.67-3.33,0.67-7,2-10.66
			c2.67-7,8.34-13,10.34-20c0.66-1.34-0.67-3.34,0.33-4.67c1-2,3-3,4.33-4.67c3-3.33,1.67-6,2.67-10c1-3.66,4-6,6.33-9
			c2.16-3.08,4.32-6.45,6.74-9.04c4.59-2.41,4.94-14.31,6.59-18.96c3-8,10.67-8,15.67-13c3-3.33,3.67-6,7.33-8.66
			c3.34-2.67,5.34-3,9.34-4c7-2,12.66-8.34,20-9.67c0.17-0.02,0.34-0.03,0.51-0.04c0.42-0.02,0.84-0.01,1.26,0.02
			c0.22,0.02,0.44,0.04,0.66,0.06c0.99,0.12,1.98,0.31,2.94,0.46c0.32,0.05,0.64,0.1,0.95,0.13l0.63,0.06
			c0.39,0.03,0.78,0.04,1.16,0.02c0.18,0,0.37-0.02,0.55-0.04c3-0.34,5.67-2.34,8.34-3.67c3.65-2.14,7.02-3.05,10.83-3.24
			c1.29-0.07,2.64-0.05,4.06,0.03c0.45,0.03,0.9,0.06,1.36,0.09c0.23,0.02,0.46,0.04,0.7,0.06c0.23,0.02,0.47,0.04,0.71,0.06
			c6,0.67,12.669,1.33,18,2c5.67,0.67,11.67,2.33,17.67,3l-2.529-0.64c0.16,0.04,0.32,0.06,0.48,0.06
			c0.359,0.03,0.729,0.04,1.09,0.01c2.85-0.17,5.85-1.87,8.629-2.43c0.681-0.13,1.281-0.23,1.83-0.29
			c0.061-0.01,0.131-0.02,0.19-0.03c0.011,0,0.011,0,0.021,0c0.199-0.03,0.399-0.04,0.59-0.05c0.38-0.02,0.74-0.03,1.09-0.01
			c2.3,0.11,3.859,1.01,6.84,2.38c3,1.33,6.33,4.33,9.66,5.33c0.199,0.07,0.4,0.12,0.609,0.17c0.131,0.04,0.261,0.06,0.391,0.09
			c0.18,0.04,0.37,0.07,0.55,0.1c0.05,0.01,0.091,0.02,0.13,0.02c0.24,0.04,0.471,0.07,0.711,0.09c0.289,0.03,0.579,0.05,0.869,0.07
			c2.18,0.13,4.561-0.05,6.5,0.08c0.2,0.01,0.391,0.03,0.58,0.05c5.25,0.73,14.13,3.12,21.96,3.39c1.24,0.05,2.46,0.04,3.63-0.04
			c5.08-0.31,9.311-1.91,11.18-6.02c0-0.31-0.58-2.94-0.93-3.56c4.891,2.69,7.561,7.92,12.82,9.56c5.21,1.74,8.92,2.22,12.859,5.6
			c-0.239-0.09-0.489-0.18-0.75-0.26l0.09,0.06l2.191,1.65l0.389,0.29c-0.549-0.59-1.09-1.12-1.629-1.59
			c5.199,2.15,5.279,6.24,6.52,10.92c2,6.33,5.67,4.33,10.67,6.67c1,0.66,1,2.33,2,2.66c0.051,0.02,0.1,0.04,0.16,0.06
			c0.09,0.02,0.189,0.04,0.3,0.05c0.05,0.01,0.101,0.01,0.16,0.02c0.09,0,0.181,0.01,0.28,0.01c0.26,0.02,0.539,0.01,0.82,0
			c0.09,0,0.17-0.01,0.26-0.01c0.08-0.01,0.17-0.01,0.25-0.02c0.17-0.01,0.32-0.03,0.459-0.04c0.061-0.01,0.111-0.01,0.16-0.01
			c0.09-0.01,0.17-0.02,0.24-0.03c0.04,0,0.07-0.01,0.1-0.01c0.051-0.01,0.08-0.01,0.101-0.01h0.05c1.99,1.99,2.32,3,1.66,5.99
			c-0.66,4.57-4.18,8.81,0.66,12.11c3.93,5.59,2.62,18.39,0.67,24.23c-2.32,7.92-7.891,16.17-7.35,24.75l-0.541-1.09
			c2.33,9,4.33,17,7.66,25.67c3.34,8.67,3.67,17.67,5.34,26.67l-0.67-0.67c2.67,13.33,14.33,22.67,22,33
			C683.357,456.113,686.357,462.453,684.357,468.113z"/>
		<g>
			<path d="M681.946,467.448c-2.207,5.868-10.762,7.224-14.687,11.897c1.179,0,2.356,0,3.535,0c-0.221-0.223-0.446-0.44-0.67-0.66
				c-1.137-1.118-3.124-0.908-3.926,0.506c-2.59,4.562-0.396,8.69,1.396,13.14c2.455,6.098-1.778,14.624-7.978,16.509
				c-5.974,1.816-20.37,2.814-13.748,12.535c0-0.841,0-1.683,0-2.523c-0.11,0.224-0.221,0.446-0.33,0.67
				c-0.542,1.099-0.371,2.099,0.391,3.029c7.835,9.58-7.753,19.621-9.313,29.237c-0.51,3.145,3.772,4.432,4.822,1.33
				c0.16-0.474,0.32-0.947,0.48-1.42c-1.607-0.443-3.215-0.887-4.822-1.33c-1.609,11.541-1.35,23.051-12.511,29.652
				c-6.658,3.938-14.113,6.74-20.918,10.497c-7.888,4.354-15.73,8.763-24.245,11.794c0.812,1.394,1.622,2.786,2.433,4.179
				c0.09-0.09,0.18-0.18,0.27-0.27c1.962-1.962-0.657-5.597-3.029-3.926c-7.026,4.948-5.925,18.624-5.966,26.071
				c-0.074,13.736-1.605,28.479,2.486,41.752c1.607-0.443,3.215-0.887,4.822-1.33c-0.556-1.557-1.11-3.114-1.67-4.67
				c-1.088-3.019-5.503-1.847-4.822,1.33c3.375,15.728,10.318,30.131,17.355,44.483c7.067,14.413,14.753,28.629,24.504,41.427
				c9.76,12.809,17.544,26.876,24.812,41.209c3.604,7.106,6.225,14.468,8.791,21.994c2.352,6.894,5.914,13.368,7.839,20.396
				c1.607-0.443,3.215-0.887,4.822-1.33c-0.207-0.604-0.414-1.207-0.62-1.811c-1.05-3.064-5.43-1.831-4.822,1.33
				c0.234,1.214,0.665,2.436,0.989,3.631c0.856,3.153,5.396,1.796,4.822-1.33c-0.063-0.344-0.127-0.688-0.189-1.031
				c-1.607,0.443-3.215,0.887-4.822,1.33c1.603,4.314,3.401,8.535,5.335,12.712c1.452,3.135,2.968,8.191,5.418,10.641
				c0.168-1.309,0.337-2.617,0.506-3.926c-56.56,25.803-118.719,37.355-180.766,34.477c-29.906-1.388-59.686-6.377-88.557-14.237
				c-13.784-3.752-27.335-8.34-40.61-13.61c-13.291-5.277-27.09-11.061-38.993-18.988c0.413,0.719,0.826,1.438,1.238,2.158
				c1.525-12.248,3.477-26.176,5.1-39.097c0.966-7.695,2.344-15.331,4.526-22.779c2.1-7.164,5.65-13.827,8.294-20.8
				c5.49-14.479,8.973-29.646,13.19-44.519c2.117-7.467,6.173-14.232,8.532-21.626c2.428-7.606,2.48-15.913,4.138-23.704
				c0.297-1.395-0.398-2.617-1.746-3.076c-0.333-0.113-0.667-0.227-1-0.34c0.612,0.804,1.224,1.607,1.835,2.411
				c-0.022-4.31-2.53-7.937-2.75-12.231c-0.297-5.766,3.605-10.909,6.227-15.747c2.396-4.423,5.334-8.969,7.095-13.687
				c1.738-4.659,0.659-10.43,5.554-13.205c6.817-3.864,6.735-10.991,10.569-17.158c4.088-6.575,13.447-8.169,16.197-15.887
				c-1.224,0.497-2.448,0.995-3.672,1.493c2.481,1.108,4.315,0.147,5.021-2.475c0.478-1.773,0.369-3.782,0.506-5.6
				c0.172-2.276,2.426-3.824,2.584-6.164c0.236-3.492,0.298-5.99,2.297-9.006c1.589-2.396,3.896-4.407,5.89-6.457
				c3.376-3.471,5.819-7.174,6.526-12.042c1.437-9.888-5.361-19.26-9.804-27.477c-2.297-4.249-2.614-8.982-4.722-13.209
				c-1.208-2.422-3.058-4.566-6.018-4.32c0.804,0.612,1.607,1.224,2.411,1.835c-0.729-3.52-2.381-6.647-4.727-9.38
				c-1.96-2.284-5.254-4.14-6.906-6.54c-1.432-2.08,0.717-5.156-2.007-6.752c-0.813-0.477-1.802-0.583-2.72-0.554
				c0.964-0.028,0.896-0.354-0.204-0.976c-1.096-1.086-1.993-1.989-2.688-3.386c-0.13,1.01-0.261,2.02-0.391,3.029
				c2.561-2.437,1.41-5.272-0.96-7.352c-1.435-1.259-3.354-1.846-4.724-3.149c-3.112-2.963-5.969-7.421-7.271-11.519
				c-0.977-3.074-0.804-6.571-1.402-9.752c-0.508-2.701-1.839-5.205-2.696-7.8c-1.098-3.325-0.479-7.239-0.178-10.658
				c0.192-2.182,1.659-6.511-0.109-8.305c-3.092-3.138-3.738-7.099-4.748-11.315c-1.059-4.419-0.639-7.299,1.099-11.378
				c1.472-3.454,1.747-6.878,2.331-10.554c1.095-6.886,6.202-12.617,9.323-18.671c0.936-1.815,2.514-4.663,2.256-6.751
				c-0.432-3.501,3.123-5.655,5.064-8.192c1.263-1.65,1.432-4.014,1.583-5.996c0.297-3.908,1.703-6.255,4.26-9.119
				c1.875-2.101,3.412-4.391,5.02-6.699c1.681-2.413,4.207-4.232,5.74-6.673c2.295-3.653,2.995-8.022,3.76-12.198
				c1.125-6.139,3.089-9.655,8.783-12.655c4.479-2.36,7.677-4.741,10.591-8.94c1.925-2.772,4.136-4.846,7.129-6.437
				c2.679-1.423,5.945-1.509,8.708-2.834c5.151-2.47,10.652-7.899,16.513-8.359c4.585-0.36,7.795,1.694,12.314-0.438
				c5.042-2.379,9.273-5.309,15.006-5.762c3.921-0.31,7.962,0.369,11.848,0.787c10.303,1.108,20.394,3.15,30.652,4.454
				c2.839,0.361,3.34-4.234,0.665-4.911c-0.844-0.213-1.687-0.427-2.529-0.64c-0.222,1.637-0.443,3.274-0.665,4.911
				c3.767,0.471,7.315-1.534,10.864-2.449c2.806-0.724,6.256,0.542,9.938,2.41c3.381,1.714,6.163,4.309,9.952,5.18
				c3.457,0.795,7.043,0.059,10.52,0.591c9.589,1.468,18.889,4.301,28.674,2.819c6.332-0.959,11.629-5.875,9.062-12.305
				c-1.225,0.941-2.449,1.882-3.673,2.823c3.843,2.352,6.608,6.005,10.384,8.469c4.575,2.985,10.358,2.792,14.79,6.3
				c0.811-1.393,1.621-2.786,2.433-4.178c-0.25-0.087-0.5-0.173-0.75-0.26c-2.81-0.975-4.174,3.067-1.927,4.569
				c0.922,0.616,1.781,1.336,2.67,2c2.339,1.746,4.947-1.958,3.029-3.926c-0.516-0.559-1.059-1.088-1.629-1.59
				c-1.01,1.309-2.02,2.618-3.029,3.926c5.066,2.477,4.35,7.945,6.663,12.399c1.748,3.365,5.651,3.79,8.911,4.625
				c2.41,0.617,2.831,3.6,5.777,3.708c0.729,0.027,1.466-0.019,2.189-0.11c-0.413,0.052-0.804,4.275-1.15,5.503
				c-0.95,3.373-2.562,8.055,0.74,10.827c4.096,3.438,3.194,11.094,2.717,15.845c-1.142,11.352-9.148,20.785-8.916,32.385
				c1.553-0.42,3.105-0.841,4.658-1.262c-0.18-0.363-0.36-0.727-0.541-1.09c-1.291-2.602-5.262-0.751-4.569,1.926
				c2.24,8.662,4.509,17.287,7.66,25.67c3.219,8.559,3.765,17.737,5.34,26.67c1.394-0.811,2.786-1.622,4.179-2.432
				c-0.223-0.224-0.446-0.447-0.67-0.67c-1.827-1.828-4.722,0.04-4.179,2.432c1.901,8.361,6.735,15.165,12.16,21.634
				C673.703,448.149,684.759,457.137,681.946,467.448c-0.85,3.116,3.975,4.437,4.822,1.329c2.629-9.644-3.671-17.516-9.562-24.431
				c-6.824-8.01-14.359-15.631-16.768-26.228c-1.394,0.811-2.786,1.622-4.179,2.432c0.223,0.224,0.446,0.447,0.67,0.67
				c1.891,1.891,4.593-0.08,4.179-2.432c-1.581-8.964-2.221-18.051-5.34-26.67c-3.052-8.432-5.417-16.993-7.66-25.67
				c-1.523,0.642-3.047,1.284-4.569,1.926c0.18,0.363,0.36,0.727,0.541,1.09c1.122,2.262,4.706,1.146,4.658-1.262
				c-0.141-7.015,3.085-13.251,5.674-19.596c1.858-4.553,2.881-9.198,3.371-14.075c0.473-4.702,0.248-9.751-1.471-14.193
				c-1.017-2.628-3.766-4.337-3.091-7.275c0.651-2.839,1.678-5.444,1.842-8.391c0.118-2.14-2.101-6.296-4.616-6.04
				c-2.823,0.288-1.795,0.049-3.422-1.948c-1.046-1.285-3.819-1.61-5.331-1.939c-3.037-0.662-4.219-1.713-5.01-4.888
				c-1.229-4.935-2.513-8.787-7.354-11.153c-2.441-1.193-5.223,1.898-3.029,3.926c0.57,0.502,1.113,1.032,1.629,1.59
				c1.01-1.309,2.02-2.618,3.029-3.926c-0.889-0.664-1.748-1.384-2.67-2c-0.642,1.523-1.284,3.046-1.927,4.569
				c0.25,0.087,0.5,0.173,0.75,0.26c2.281,0.792,4.404-2.618,2.433-4.178c-3.795-3.004-7.858-4.362-12.442-5.755
				c-5.659-1.72-8.841-6.795-13.743-9.796c-1.739-1.064-4.511,0.724-3.673,2.823c1.249,3.129,0.817,3.393-2.307,5.172
				c-4.23,2.408-10.804,1.328-15.356,0.71c-7.79-1.056-14.974-2.715-22.846-2.947c-2.868-0.084-5.296-1.685-7.646-3.188
				c-3.142-2.009-6.521-3.84-10.142-4.815c-5.581-1.503-10.515,3.165-15.893,2.492c-2.84-0.355-3.34,4.233-0.665,4.911
				c0.844,0.213,1.687,0.427,2.529,0.64c0.222-1.637,0.443-3.274,0.665-4.911c-13.311-1.691-26.362-4.7-39.836-5.269
				c-5.937-0.25-10.938,1.583-16.091,4.32c-2.502,1.33-4.811,2.891-7.767,2.608c-2.234-0.213-4.374-0.837-6.635-0.66
				c-5.313,0.417-10.222,4.24-14.597,6.911c-5.135,3.135-11.153,3.46-16.005,7.1c-4.433,3.326-6.419,8.636-11.208,11.528
				c-4.331,2.617-8.419,4.251-11.449,8.516c-2.429,3.42-2.646,8.294-3.435,12.266c-0.461,2.319-1.03,4.64-2.106,6.755
				c-1.106,2.176-3.755,4.106-5.278,6.126c-2.045,2.713-3.854,5.517-6.124,8.06c-1.459,1.635-3.008,3.493-3.747,5.588
				c-0.906,2.57-0.815,5.084-1.234,7.742c-0.483,3.066-4.338,5.109-5.978,7.646c-1.308,2.024-0.352,4.559-1.064,6.752
				c-1.076,3.313-3.23,6.371-5.045,9.311c-1.537,2.49-3.074,5.008-4.197,7.718c-1.631,3.935-1.908,7.992-2.616,12.146
				c-0.492,2.887-2.311,5.645-3.094,8.486c-0.68,2.464-0.116,5.067,0.348,7.513c0.5,2.639,0.949,5.335,1.555,7.947
				c0.563,2.428,2.854,3.326,3.532,5.383c0.743,2.254,0.543,0.497,0.275,3.258c-0.326,3.361-0.647,6.698-0.705,10.077
				c-0.101,5.956,3.435,11.282,4.007,17.209c0.568,5.891,2.531,10.218,5.918,15.052c0.826,1.179,7.596,9.117,9.147,7.642
				c-0.852,0.81-0.887,2.034-0.391,3.029c1.083,2.175,3.446,5.311,5.557,6.547c1.708,1,1.127,0.212,1.056-0.604
				c0.112,1.277-0.048,2.493,0.135,3.79c0.378,2.682,2.865,3.882,4.643,5.433c3.471,3.029,6.406,6.637,7.357,11.227
				c0.21,1.014,1.366,1.922,2.411,1.835c2.017-0.168,2.774,5.732,3.149,7.275c0.771,3.169,2.372,6.111,3.912,8.96
				c4.091,7.567,10.292,15.975,8.167,25.04c-1.695,7.232-10.232,11.352-13.311,18.092c-0.543,1.189-1.037,2.601-1.042,3.922
				c-0.01,2.808-0.853,4.465-1.83,7.022c-0.448,1.171-0.65,2.132-0.801,3.363c-0.057,0.675-0.102,1.35-0.135,2.026
				c-0.022,0.35-0.044,0.7-0.066,1.05c-0.558,1.672,0.174,1.898,2.198,0.682c-1.541-0.688-3.09-0.141-3.672,1.493
				c-1.396,3.917-6.523,6.349-9.727,8.63c-2.957,2.104-5.309,4.74-7.047,7.915c-1.865,3.406-2.58,7.307-4.28,10.778
				c-0.916,1.87-3.571,2.751-5.208,3.837c-1.371,0.909-2.286,2.205-3.142,3.574c-2.304,3.684-1.538,8.679-3.509,12.6
				c-2.766,5.499-5.715,10.904-8.662,16.309c-2.141,3.927-3.729,7.326-4.205,11.812c-0.531,5.011,2.686,9.004,2.71,13.79
				c0.006,1.163,0.769,2.048,1.835,2.411c0.333,0.113,0.667,0.227,1,0.34c-0.582-1.025-1.164-2.051-1.746-3.076
				c-1.669,7.85-2.011,15.954-4.138,23.705c-2.05,7.472-6.216,14.224-8.532,21.625c-4.628,14.794-7.828,29.938-13.19,44.52
				c-2.584,7.025-6.049,13.646-8.294,20.8c-2.213,7.053-3.388,14.419-4.391,21.725c-1.896,13.803-3.693,27.659-5.414,41.48
				c-0.109,0.88,0.565,1.71,1.238,2.158c11.343,7.555,24.311,12.947,36.901,18.161c13.738,5.688,27.858,10.429,42.165,14.463
				c28.57,8.056,58.144,12.878,87.763,14.688c61.908,3.784,124.225-7.564,181.067-32.233c2.036-0.884,4.058-1.798,6.077-2.72
				c1.49-0.68,1.559-2.873,0.506-3.926c-2.032-2.032-3.383-6.989-4.636-9.629c-1.786-3.766-3.38-7.611-4.83-11.519
				c-1.124-3.026-5.406-1.853-4.822,1.33c0.063,0.344,0.127,0.688,0.189,1.031c1.607-0.443,3.215-0.887,4.822-1.33
				c-0.325-1.194-0.756-2.416-0.989-3.631c-1.607,0.443-3.215,0.887-4.822,1.33c0.207,0.604,0.414,1.207,0.62,1.811
				c1.035,3.021,5.682,1.809,4.822-1.33c-1.788-6.525-5.144-12.446-7.301-18.84c-2.466-7.308-4.883-14.646-8.253-21.597
				c-6.99-14.422-14.85-28.578-24.266-41.565c-9.529-13.144-17.783-26.554-25.076-41.081c-7.488-14.918-14.882-30.004-18.405-46.427
				c-1.607,0.443-3.215,0.887-4.822,1.33c0.561,1.556,1.115,3.112,1.67,4.67c1.068,2.998,5.782,1.784,4.822-1.33
				c-3.632-11.778-2.14-24.409-2.289-36.558c-0.058-4.642,0-9.282,0.338-13.914c0.218-2.973,0.315-9.721,3.132-11.705
				c-1.01-1.309-2.02-2.617-3.029-3.926c-0.09,0.09-0.18,0.18-0.27,0.27c-1.691,1.69,0.001,5.044,2.433,4.179
				c8.372-2.981,16.16-7.16,23.918-11.456c8.022-4.442,16.994-7.736,24.653-12.713c10.901-7.082,10.979-19.692,12.595-31.267
				c0.436-3.127-3.763-4.46-4.822-1.33c-0.16,0.474-0.32,0.947-0.48,1.42c1.607,0.443,3.215,0.887,4.822,1.33
				c1.129-6.964,6.909-11.935,10.117-17.959c3.062-5.752,1.907-11.256-2.091-16.144c0.131,1.01,0.261,2.02,0.391,3.029
				c0.11-0.224,0.221-0.446,0.33-0.67c0.382-0.773,0.521-1.76,0-2.523c-1.601-2.351-0.315-2.521,1.969-3.152
				c2.096-0.58,4.259-1.007,6.382-1.468c3.701-0.803,7.123-1.985,9.5-5.108c2.812-3.697,4.823-7.399,5.286-12.058
				c0.477-4.783-5.172-11.183-2.807-15.351c-1.309,0.169-2.617,0.337-3.926,0.506c0.224,0.22,0.449,0.438,0.67,0.66
				c0.896,0.905,2.66,1.042,3.535,0c4.82-5.739,13.104-6.473,15.974-14.103C687.905,465.753,683.07,464.459,681.946,467.448z"/>
		</g>
	</g>
	<g>
		<path d="M391.418,479.383c-0.12,0.02-0.25,0.04-0.39,0.06v-0.01C391.168,479.413,391.298,479.393,391.418,479.383z"/>
		<g>
			<path d="M390.753,476.972c-0.13,0.021-0.26,0.041-0.39,0.06c1.055,0.804,2.11,1.607,3.165,2.411c0-0.003,0-0.007,0-0.01
				c-0.612,0.804-1.224,1.607-1.835,2.411c-0.439,0.054-0.531,0.067-0.274,0.04c1.355-0.141,2.5-1.031,2.5-2.5
				c0-1.256-1.142-2.641-2.5-2.5c-0.353,0.037-0.704,0.089-1.055,0.139c-1.082,0.155-1.835,1.405-1.835,2.411
				c0,0.003,0,0.007,0,0.01c0,0.661,0.266,1.301,0.732,1.768c0.689,0.689,1.518,0.777,2.432,0.643c0.13-0.019,0.26-0.039,0.39-0.06
				c1.347-0.218,2.078-1.87,1.746-3.075C393.438,477.3,392.097,476.754,390.753,476.972z"/>
		</g>
	</g>
	<g>
		<path d="M398.858,321.953l0.51-0.5c-0.16,0.16-0.31,0.32-0.47,0.48c-0.04,0.05-0.09,0.09-0.13,0.14
			c-0.02,0.02-0.05,0.03-0.07,0.04L398.858,321.953z"/>
		<g>
			<path d="M400.625,323.72c0.17-0.167,0.34-0.333,0.51-0.5c-1.178-1.178-2.357-2.357-3.535-3.535
				c-0.118,0.119-0.234,0.24-0.352,0.36c-0.236,0.244-0.369,0.226,0.188-0.091c1.01,1.309,2.02,2.618,3.029,3.926
				C400.519,323.827,400.572,323.774,400.625,323.72c0.963-0.963,0.963-2.572,0-3.535c-0.963-0.963-2.572-0.963-3.535,0
				c-0.054,0.053-0.107,0.106-0.16,0.16c-0.794,0.793-0.959,2.06-0.391,3.029c0.694,1.185,2.236,1.571,3.42,0.897
				c0.464-0.264,0.807-0.676,1.176-1.051c0.956-0.97,0.969-2.566,0-3.535c-0.97-0.97-2.563-0.954-3.535,0
				c-0.17,0.167-0.34,0.333-0.51,0.5c-0.973,0.954-0.957,2.579,0,3.535C398.06,324.69,399.653,324.674,400.625,323.72z"/>
		</g>
	</g>
	<g>
		<path d="M404.908,583.113c-0.15,0.029-0.34-0.051-0.56-0.25c0.01-0.031,0.01-0.051,0.02-0.08
			C404.578,582.992,404.758,583.103,404.908,583.113z"/>
		<g>
			<path d="M404.908,580.613c0.484,0.005,0.886,0.166,1.208,0.482c0.214,0.811,0.429,1.621,0.643,2.433
				c0.007-0.027,0.013-0.054,0.02-0.08c-1.393,0.367-2.786,0.735-4.178,1.103c0.465,0.432,1.004,0.848,1.643,0.974
				c1.336,0.263,2.694-0.36,3.075-1.746c0.341-1.239-0.408-2.812-1.746-3.076c-0.543-0.106,1.089,0.8,0.563,0.313
				c-1.339-1.24-3.706-0.787-4.178,1.103c-0.007,0.027-0.013,0.054-0.02,0.08c-0.201,0.805-0.039,1.874,0.643,2.433
				c0.682,0.56,1.397,1.025,2.328,0.982c1.361-0.062,2.5-1.09,2.5-2.5C407.408,581.798,406.27,580.551,404.908,580.613z"/>
		</g>
	</g>
	<g>
		<path d="M405.608,500.753c-0.08,0.01-0.16,0.02-0.24,0.03v-0.01C405.448,500.763,405.528,500.753,405.608,500.753z"/>
		<g>
			<path d="M405.608,498.253c-0.08,0.01-0.16,0.02-0.24,0.03c0.833,0.833,1.667,1.667,2.5,2.5c0-0.003,0-0.006,0-0.01
				c-0.833,0.833-1.667,1.667-2.5,2.5c0.08-0.012,0.16-0.019,0.24-0.02c1.36-0.07,2.5-1.084,2.5-2.5
				C408.108,499.443,406.97,498.183,405.608,498.253c-0.081,0.001-0.161,0.008-0.24,0.02c-1.354,0.156-2.5,1.019-2.5,2.5
				c0,0.003,0,0.006,0,0.01c0,1.236,1.144,2.668,2.5,2.5c0.08-0.01,0.16-0.02,0.24-0.03c0.692-0.086,1.255-0.219,1.768-0.732
				c0.467-0.467,0.732-1.107,0.732-1.768C408.108,499.518,406.964,498.085,405.608,498.253z"/>
		</g>
	</g>
	<g>
		<path d="M464.018,268.413c-0.31-0.03-0.63-0.08-0.95-0.13c-0.96-0.15-1.95-0.34-2.94-0.46c1.11,0.11,2.2,0.34,3.26,0.5
			C463.598,268.353,463.808,268.383,464.018,268.413z"/>
		<g>
			<path d="M464.018,265.913c-0.774-0.085,0.501,0.081-0.286-0.041c-0.389-0.06-0.776-0.127-1.165-0.192
				c-0.811-0.137-1.624-0.253-2.44-0.357c0,1.667,0,3.333,0,5c0.385,0.042,0.89,0.125,1.428,0.217
				c0.598,0.103,1.197,0.198,1.798,0.283c1.348,0.192,2.68-0.309,3.075-1.746c0.326-1.186-0.395-2.883-1.746-3.075
				c-1.521-0.216-3.027-0.513-4.555-0.679c-1.357-0.147-2.5,1.249-2.5,2.5c0,1.494,1.148,2.327,2.5,2.5
				c0.274,0.035,1.186,0.191,1.696,0.277c0.729,0.122,1.46,0.232,2.194,0.313c1.357,0.15,2.5-1.25,2.5-2.5
				C466.518,266.937,465.372,266.062,464.018,265.913z"/>
		</g>
	</g>
	<g>
		<path d="M525.979,266.203c-0.16,0-0.32-0.02-0.48-0.06l-0.141-0.03C525.568,266.153,525.768,266.183,525.979,266.203z"/>
		<g>
			<path d="M525.979,263.703c-0.535-0.022,0.494,0.095,0.044,0c-0.443,1.607-0.887,3.214-1.33,4.821
				c0.427,0.077,0.856,0.133,1.286,0.179c1.357,0.146,2.5-1.248,2.5-2.5C528.479,264.729,527.333,263.849,525.979,263.703
				c-0.567-0.061,0.608,0.101,0.044,0c-1.341-0.241-2.69,0.344-3.076,1.746c-0.345,1.253,0.413,2.793,1.746,3.075
				c0.424,0.09,0.854,0.161,1.286,0.179c1.362,0.057,2.5-1.18,2.5-2.5C528.479,264.797,527.34,263.759,525.979,263.703z"/>
		</g>
	</g>
	<g>
		<path d="M558.309,271.583c-0.24-0.02-0.471-0.05-0.711-0.09c-0.039,0-0.08-0.01-0.13-0.02c-0.18-0.03-0.37-0.06-0.55-0.1
			c-0.13-0.03-0.26-0.05-0.391-0.09c-0.209-0.05-0.41-0.1-0.609-0.17c-3.33-1-6.66-4-9.66-5.33c-2.98-1.37-4.54-2.27-6.84-2.38
			c2.359,0.08,3.92,0.99,6.939,2.38c3,1.33,6.34,4.33,9.67,5.33c0.461,0.15,0.971,0.27,1.48,0.36c0.01,0,0.01,0,0.02,0
			C557.788,271.513,558.048,271.542,558.309,271.583z"/>
		<g>
			<path d="M558.309,269.083c-3.281-0.415-6.021-2.665-8.744-4.365c-3.021-1.885-6.59-3.46-10.146-3.815c0,1.667,0,3.333,0,5
				c6.802,0.59,11.473,7.141,18.226,8.09c3.152,0.443,4.512-4.374,1.33-4.821c-7.109-1-12.127-7.624-19.556-8.269
				c-3.227-0.28-3.167,4.684,0,5c6.988,0.698,11.834,7.288,18.891,8.18C561.502,274.486,561.463,269.481,558.309,269.083z"/>
		</g>
	</g>
	<g>
		<path d="M588.218,275.173c-7.83-0.27-16.71-2.66-21.96-3.39c-0.189-0.02-0.38-0.04-0.58-0.05c0.24,0.01,0.46,0.03,0.68,0.05
			C571.588,272.503,580.418,274.883,588.218,275.173z"/>
		<g>
			<path d="M588.218,272.673c-7.656-0.386-14.951-2.788-22.54-3.44c0,1.667,0,3.333,0,5c7.573,0.555,14.896,3.036,22.54,3.44
				C591.441,277.843,591.425,272.843,588.218,272.673c-7.646-0.404-14.953-2.884-22.54-3.44c-3.229-0.237-3.179,4.727,0,5
				c7.58,0.651,14.883,3.054,22.54,3.44C591.441,277.835,591.426,272.834,588.218,272.673z"/>
		</g>
	</g>
	<g>
		<path d="M647.718,301.223c-0.11-0.01-0.21-0.03-0.3-0.05c-0.061-0.02-0.109-0.04-0.16-0.06c-1-0.33-1-2-2-2.66
			c-5-2.34-8.67-0.34-10.67-6.67c-1.24-4.68-1.32-8.77-6.52-10.92c0.539,0.47,1.08,1,1.629,1.59l-0.389-0.29l-2.191-1.65l-0.09-0.06
			c0.261,0.08,0.511,0.17,0.75,0.26c-3.939-3.38-7.649-3.86-12.859-5.6c-5.26-1.64-7.93-6.87-12.82-9.56
			c-0.029-0.04-0.05-0.08-0.07-0.1c5,2.66,7.67,8,13,9.66c5.261,1.75,8.98,2.23,12.971,5.68c5.359,2.13,5.43,6.26,6.699,10.99
			c2,6.33,5.66,4.33,10.66,6.67c1,0.66,1,2.33,2,2.66C647.447,301.163,647.568,301.193,647.718,301.223z"/>
		<g>
			<path d="M648.383,298.812c-0.471-0.078-0.22-0.73-0.616-1.217c-0.968-1.188-1.569-1.439-2.975-2.021
				c-2.225-0.922-5.457-0.557-7.005-2.676c-1.64-2.245-1.486-5.734-2.603-8.266c-1.235-2.801-3.116-4.588-5.854-5.927
				c-2.441-1.193-5.223,1.898-3.029,3.926c0.57,0.502,1.113,1.032,1.629,1.59c1.01-1.309,2.02-2.618,3.029-3.926
				c-0.889-0.664-1.748-1.384-2.67-2c-0.642,1.523-1.284,3.046-1.927,4.569c0.25,0.087,0.5,0.173,0.75,0.26
				c2.281,0.792,4.404-2.618,2.433-4.178c-3.795-3.004-7.858-4.362-12.442-5.755c-3.296-1.001-5.495-2.815-7.933-5.164
				c-1.163-1.121-4.251-2.792-4.984-3.836c-1.14,1.14-2.28,2.28-3.42,3.42c4.955,2.951,8.068,7.804,13.597,9.912
				c5.606,2.137,14.483,3.623,16.703,10.069c1.464,4.252,1.569,8.898,6.169,11.036c1.642,0.763,3.506,0.971,5.247,1.417
				c1.979,0.507,2.462,2.945,4.571,3.588C650.146,304.576,651.457,299.75,648.383,298.812c0.411,0.125-1.48-2.401-1.258-2.127
				c-0.461-0.566-1.638-0.865-2.232-1.112c-1.896-0.786-4.044-0.755-5.907-1.621c-2.282-1.061-2.505-5.549-3.099-7.688
				c-0.646-2.33-1.899-4.281-3.684-5.887c-3.712-3.342-8.822-5.33-13.525-6.743c-6.514-1.958-9.774-6.997-15.389-10.34
				c-2.056-1.225-4.903,1.309-3.42,3.42c1.141,1.625,3.313,2.573,4.789,3.916c1.812,1.649,3.521,3.335,5.464,4.834
				c4.667,3.6,11.168,3.281,15.888,7.017c0.811-1.393,1.621-2.786,2.433-4.178c-0.25-0.087-0.5-0.173-0.75-0.26
				c-2.81-0.975-4.174,3.067-1.927,4.569c0.922,0.616,1.781,1.336,2.67,2c2.339,1.746,4.947-1.958,3.029-3.926
				c-0.516-0.559-1.059-1.088-1.629-1.59c-1.01,1.309-2.02,2.618-3.029,3.926c6.227,3.044,3.402,11.129,8.83,14.766
				c2.048,1.372,4.402,1.658,6.744,2.258c2.035,0.521,2.408,3.212,4.672,3.588C650.206,304.157,651.558,299.339,648.383,298.812z"/>
		</g>
	</g>
	<g>
		<path d="M639.697,550.453c-2.34,15.66-0.67,26.33-17.67,33.66c-14.33,6-27.33,15.67-42,20.67l0.061-0.061
			c14.6-5.01,27.561-14.63,41.83-20.609c16.79-7.24,15.37-17.73,17.59-33.08L639.697,550.453z"/>
		<g>
			<path d="M637.286,549.788c-1.677,11.661-1.246,23.496-12.546,30.207c-6.684,3.97-14.191,6.78-21.029,10.557
				c-7.92,4.372-15.793,8.794-24.349,11.82c0.812,1.394,1.622,2.786,2.433,4.179c0.565-0.564,3.425-1.098,4.364-1.499
				c2.114-0.901,4.197-1.854,6.267-2.853c4.686-2.263,9.217-4.845,13.766-7.364c7.831-4.338,16.861-7.385,24.128-12.581
				c4.614-3.3,7.476-7.989,9.031-13.372c1.658-5.741,0.924-12.149,2.758-17.764C643.112,548.044,638.283,546.737,637.286,549.788
				c-1.603,4.908-1.263,10.673-2.275,15.756c-1.298,6.508-4.729,11.107-10.425,14.477c-3.708,2.192-7.888,3.65-11.741,5.578
				c-4.14,2.071-8.171,4.362-12.219,6.604c-4.044,2.238-8.114,4.419-12.277,6.429c-2.888,1.395-7.839,2.134-10.089,4.384
				c-1.693,1.692,0.001,5.038,2.433,4.179c8.41-2.977,16.229-7.168,24.015-11.479c8.064-4.466,17.104-7.771,24.791-12.794
				c11.025-7.203,10.929-20.11,12.61-31.803C642.562,547.965,637.744,546.607,637.286,549.788z"/>
		</g>
	</g>
	<g>
		<path d="M653.688,343.453c-2.33,8-8,16.33-7.33,25l-0.119-0.25c-0.541-8.58,5.029-16.83,7.35-24.75
			c1.95-5.84,3.26-18.64-0.67-24.23c-4.84-3.3-1.32-7.54-0.66-12.11c0.66-2.99,0.33-4-1.66-5.99c0.061-0.01,0.1-0.01,0.1-0.01
			c2,2,2.33,3,1.66,6c-0.64,4.5-4.06,8.68,0.451,11.96c0.069,0.06,0.139,0.11,0.209,0.15c0.03,0.04,0.061,0.08,0.09,0.13
			C656.938,325.003,655.617,337.653,653.688,343.453z"/>
		<g>
			<path d="M651.276,342.788c-2.702,8.58-7.726,16.386-7.419,25.665c1.553-0.42,3.105-0.841,4.658-1.262
				c-1.094-2.295,1.857-8.626,2.735-10.946c1.354-3.578,2.991-7.032,4.276-10.639c1.854-5.201,2.496-10.844,2.418-16.339
				c-0.038-2.671-0.463-5.361-1.24-7.913c-0.893-2.933-4.171-5.293-3.483-8.29c1.221-5.318,3.271-9.259-0.856-13.709
				c-0.589,1.422-1.179,2.845-1.768,4.268c-0.314,0.031-2.31,8.72-2.446,9.928c-0.363,3.213,0.739,5.776,3.396,7.681
				c-0.788-0.908-0.809-0.814-0.062,0.281c0.408,0.84,0.718,1.715,0.928,2.624c0.656,2.322,0.654,4.817,0.645,7.21
				C653.042,335.209,652.416,339.102,651.276,342.788c-0.954,3.089,3.872,4.399,4.822,1.329c2.441-7.897,3.586-18.628-0.833-26.026
				c-1.119-1.875-2.514-2.556-1.914-5.104c0.567-2.408,1.609-4.713,1.754-7.221c0.136-2.342-1.298-7.458-4.508-7.143
				c-2.145,0.21-3.341,2.571-1.768,4.268c3.853,4.154-3.546,10.713-0.062,15.506c1.635,2.248,3.056,3.722,3.717,6.519
				c0.732,3.101,0.531,6.47,0.298,9.617c-0.454,6.136-2.753,11.688-5.094,17.306c-1.926,4.621-5.9,12.82-3.49,17.877
				c1.083,2.274,4.737,1.138,4.658-1.262c-0.289-8.725,4.696-16.255,7.241-24.335C657.069,341.033,652.242,339.724,651.276,342.788z
				"/>
		</g>
	</g>
	<g>
		<path d="M653.357,319.453c-0.119-0.07-0.229-0.15-0.34-0.23c-0.109-0.16-0.22-0.3-0.33-0.44L653.357,319.453z"/>
		<g>
			<path d="M654.619,317.294c-0.116-0.073-0.229-0.149-0.34-0.23c0.299,0.299,0.598,0.598,0.896,0.897
				c-0.229-0.323-0.476-0.634-0.721-0.946c-1.179,1.178-2.356,2.357-3.535,3.535c0.223,0.224,0.446,0.447,0.67,0.67
				c0.963,0.963,2.572,0.963,3.535,0c0.963-0.963,0.963-2.572,0-3.535c-0.223-0.224-0.446-0.447-0.67-0.67
				c-0.963-0.963-2.572-0.963-3.535,0c-0.467,0.466-0.732,1.107-0.732,1.768c0,0.727,0.303,1.22,0.732,1.768
				c-0.599-0.763,0.572,0.683,0.33,0.44c0.224,0.224,0.563,0.444,0.846,0.621c1.156,0.723,2.747,0.252,3.42-0.897
				C656.221,319.512,655.772,318.015,654.619,317.294z"/>
		</g>
	</g>
	<g>
		<path d="M670.059,857.332l-0.091-0.01h-0.03c-3.74-7.27-7.33-14.59-10.1-22.24c0.07,0.351,0.141,0.691,0.189,1.031l-0.369-1.36
			l-0.021-0.06l-0.17-0.631l-0.42-1.529l-0.01-0.051c0.2,0.61,0.409,1.211,0.62,1.811c2.81,7.93,6.51,15.49,10.38,23
			C670.048,857.303,670.048,857.322,670.059,857.332z"/>
		<g>
			<path d="M670.059,854.832c-0.04-0.008-0.08-0.011-0.121-0.01c0.72,0.413,1.439,0.825,2.158,1.238
				c-3.622-7.068-7.08-14.189-9.847-21.644c-1.124-3.026-5.406-1.853-4.822,1.33c0.063,0.344,0.127,0.688,0.189,1.031
				c1.607-0.443,3.215-0.887,4.822-1.33c-0.325-1.194-0.756-2.416-0.989-3.631c-1.607,0.443-3.215,0.887-4.822,1.33
				c3.011,8.788,6.958,17.229,11.273,25.446c1.499,2.855,5.814,0.328,4.316-2.523c-4.115-7.84-7.896-15.869-10.768-24.253
				c-1.05-3.064-5.43-1.831-4.822,1.33c0.234,1.214,0.665,2.436,0.989,3.631c0.856,3.153,5.396,1.796,4.822-1.33
				c-0.063-0.344-0.127-0.688-0.189-1.031c-1.607,0.443-3.215,0.887-4.822,1.33c2.917,7.855,6.533,15.385,10.353,22.837
				c0.395,0.771,1.315,1.238,2.158,1.238c0.041-0.001,0.081,0.002,0.121,0.01C673.263,860.177,673.229,855.173,670.059,854.832z"/>
		</g>
	</g>
</g>
<path fill="#ED1C24" stroke="#000000" stroke-width="5" stroke-miterlimit="10" d="M645.9,302.44c-0.08,0.01-0.17,0.01-0.25,0.02
	c0.01-0.01,0.029-0.01,0.039-0.01C645.76,302.45,645.83,302.44,645.9,302.44z"/>
</svg>
